<svg width="37" height="39" viewBox="0 0 37 39" fill="none" xmlns="http://www.w3.org/2000/svg">
<path fill-rule="evenodd" clip-rule="evenodd" d="M0 7.84848C0 3.51389 3.51389 0 7.84848 0L33.0758 0C35.2431 0 37 1.75694 37 3.92424V3.92424C37 6.09154 35.2431 7.84849 33.0758 7.84849L19.4343 7.84849C13.0356 7.84849 7.84848 13.0356 7.84848 19.4343V20.3687C7.84848 26.2513 12.6173 31.0202 18.5 31.0202H25.4141C27.4782 31.0202 29.1515 29.3469 29.1515 27.2828V27.2828C29.1515 25.2187 27.4782 23.5455 25.4141 23.5455L19.6212 23.5455C17.4539 23.5455 15.697 21.7885 15.697 19.6212V19.6212C15.697 17.4539 17.4539 15.697 19.6212 15.697H29.1515V15.697C33.4861 15.697 37 19.2109 37 23.5454V31.0202V31.0202C37 35.3548 33.4861 38.8687 29.1515 38.8687H7.84848C3.51389 38.8687 0 35.3548 0 31.0202V31.0202L0 7.84848V7.84848Z" fill="#1A1A1A"/>
</svg>
