<svg width="253" height="55" viewBox="0 0 253 55" fill="none" xmlns="http://www.w3.org/2000/svg">
<path d="M57.4955 31.5091C57.4955 35.5243 59.1176 37.5318 62.3618 37.5318C63.1006 37.5318 63.7912 37.4355 64.4336 37.2427C65.076 37.05 65.6221 36.8252 66.0718 36.5682V25.101C65.7185 25.0367 65.3009 24.9885 64.8191 24.9564C64.3373 24.8922 63.7751 24.8601 63.1327 24.8601C61.2376 24.8601 59.8242 25.4864 58.8927 26.7391C57.9612 27.9919 57.4955 29.5819 57.4955 31.5091ZM73.2509 41.82C73.2509 45.9636 72.1909 49.0312 70.0709 51.0227C67.983 53.0463 64.7388 54.0582 60.3382 54.0582C58.7964 54.0582 57.2545 53.9136 55.7127 53.6245C54.1709 53.3676 52.7415 53.0142 51.4246 52.5645L52.6773 46.5418C53.8015 46.9915 54.9739 47.3448 56.1945 47.6018C57.4473 47.8588 58.8606 47.9873 60.4345 47.9873C62.4903 47.9873 63.9357 47.5376 64.7709 46.6382C65.6382 45.7388 66.0718 44.5824 66.0718 43.1691V42.2536C65.3009 42.607 64.4979 42.88 63.6627 43.0727C62.8597 43.2333 61.9764 43.3136 61.0127 43.3136C57.5115 43.3136 54.8294 42.2858 52.9664 40.23C51.1034 38.1421 50.1718 35.2352 50.1718 31.5091C50.1718 29.6461 50.4609 27.9597 51.0391 26.4501C51.6173 24.9082 52.4524 23.5913 53.5446 22.4992C54.6688 21.407 56.0339 20.5719 57.64 19.9937C59.2461 19.3834 61.0609 19.0783 63.0845 19.0783C63.9518 19.0783 64.8351 19.1264 65.7345 19.2228C66.666 19.287 67.5815 19.3834 68.4809 19.5119C69.3803 19.6404 70.2315 19.801 71.0345 19.9937C71.8697 20.1543 72.6084 20.331 73.2509 20.5237V41.82ZM95.2578 26.0164C94.6154 25.8558 93.8606 25.6952 92.9933 25.5346C92.126 25.3419 91.1945 25.2455 90.1988 25.2455C89.7491 25.2455 89.203 25.2937 88.5606 25.3901C87.9503 25.4543 87.4845 25.5346 87.1633 25.631V45H79.9843V21.0055C81.2691 20.5558 82.7788 20.1383 84.5133 19.7528C86.28 19.3352 88.2394 19.1264 90.3915 19.1264C90.777 19.1264 91.2427 19.1586 91.7888 19.2228C92.3348 19.2549 92.8809 19.3192 93.4269 19.4155C93.973 19.4798 94.5191 19.5761 95.0651 19.7046C95.6112 19.801 96.0769 19.9295 96.4624 20.0901L95.2578 26.0164ZM109.525 39.9891C110.232 39.9891 110.906 39.973 111.549 39.9409C112.191 39.9088 112.705 39.8606 113.09 39.7964V34.3518C112.801 34.2876 112.368 34.2234 111.789 34.1591C111.211 34.0949 110.681 34.0628 110.199 34.0628C109.525 34.0628 108.882 34.1109 108.272 34.2073C107.694 34.2715 107.18 34.4161 106.73 34.6409C106.281 34.8658 105.927 35.1709 105.67 35.5564C105.413 35.9418 105.285 36.4237 105.285 37.0018C105.285 38.1261 105.654 38.913 106.393 39.3627C107.164 39.7803 108.208 39.9891 109.525 39.9891ZM108.947 18.9819C111.067 18.9819 112.833 19.2228 114.247 19.7046C115.66 20.1864 116.784 20.877 117.619 21.7764C118.487 22.6758 119.097 23.7679 119.45 25.0528C119.804 26.3376 119.98 27.767 119.98 29.341V44.2773C118.952 44.5021 117.523 44.7591 115.692 45.0482C113.861 45.3694 111.645 45.53 109.043 45.53C107.405 45.53 105.911 45.3855 104.562 45.0964C103.245 44.8073 102.105 44.3415 101.141 43.6991C100.178 43.0246 99.4389 42.1573 98.9249 41.0973C98.411 40.0373 98.154 38.7364 98.154 37.1946C98.154 35.717 98.4431 34.4643 99.0213 33.4364C99.6316 32.4085 100.435 31.5894 101.43 30.9791C102.426 30.3688 103.566 29.9352 104.851 29.6782C106.136 29.3891 107.469 29.2446 108.85 29.2446C109.782 29.2446 110.601 29.2928 111.308 29.3891C112.046 29.4534 112.641 29.5497 113.09 29.6782V29.0037C113.09 27.7831 112.721 26.8034 111.982 26.0646C111.243 25.3258 109.959 24.9564 108.128 24.9564C106.907 24.9564 105.702 25.0528 104.514 25.2455C103.326 25.4061 102.298 25.647 101.43 25.9682L100.515 20.1864C100.932 20.0579 101.446 19.9295 102.057 19.801C102.699 19.6404 103.39 19.5119 104.129 19.4155C104.867 19.287 105.638 19.1907 106.441 19.1264C107.276 19.0301 108.112 18.9819 108.947 18.9819ZM133.747 39.8446C135.064 39.8446 135.996 39.7161 136.542 39.4591C137.088 39.2021 137.361 38.7043 137.361 37.9655C137.361 37.3873 137.008 36.8894 136.301 36.4718C135.594 36.0221 134.518 35.5243 133.073 34.9782C131.949 34.5606 130.921 34.127 129.989 33.6773C129.09 33.2276 128.319 32.6976 127.677 32.0873C127.034 31.4449 126.536 30.69 126.183 29.8228C125.83 28.9555 125.653 27.9116 125.653 26.691C125.653 24.314 126.536 22.4349 128.303 21.0537C130.07 19.6725 132.495 18.9819 135.578 18.9819C137.12 18.9819 138.598 19.1264 140.011 19.4155C141.424 19.6725 142.549 19.9616 143.384 20.2828L142.131 25.8719C141.296 25.5828 140.38 25.3258 139.385 25.101C138.421 24.8761 137.329 24.7637 136.108 24.7637C133.86 24.7637 132.736 25.3901 132.736 26.6428C132.736 26.9319 132.784 27.1888 132.88 27.4137C132.977 27.6385 133.169 27.8634 133.458 28.0882C133.747 28.281 134.133 28.5058 134.615 28.7628C135.129 28.9876 135.771 29.2446 136.542 29.5337C138.116 30.1119 139.417 30.69 140.445 31.2682C141.473 31.8143 142.276 32.4246 142.854 33.0991C143.464 33.7415 143.882 34.4643 144.107 35.2673C144.364 36.0703 144.492 37.0018 144.492 38.0618C144.492 40.5673 143.544 42.4624 141.649 43.7473C139.786 45.0321 137.136 45.6745 133.699 45.6745C131.451 45.6745 129.572 45.4818 128.062 45.0964C126.584 44.7109 125.557 44.3897 124.978 44.1327L126.183 38.3027C127.404 38.7846 128.656 39.17 129.941 39.4591C131.226 39.7161 132.495 39.8446 133.747 39.8446ZM149.616 13.3446L156.795 12.1883V19.6564H165.42V25.631H156.795V34.5446C156.795 36.0543 157.052 37.2588 157.566 38.1582C158.112 39.0576 159.188 39.5073 160.794 39.5073C161.565 39.5073 162.352 39.443 163.155 39.3146C163.99 39.154 164.745 38.9452 165.42 38.6882L166.432 44.2773C165.564 44.6306 164.601 44.9358 163.541 45.1927C162.481 45.4497 161.18 45.5782 159.638 45.5782C157.679 45.5782 156.056 45.3212 154.772 44.8073C153.487 44.2612 152.459 43.5224 151.688 42.5909C150.917 41.6273 150.371 40.4709 150.05 39.1218C149.761 37.7727 149.616 36.2791 149.616 34.6409V13.3446ZM194.03 32.28C194.03 34.2715 193.741 36.1024 193.163 37.7727C192.585 39.4109 191.75 40.8243 190.658 42.0127C189.565 43.1691 188.248 44.0685 186.707 44.7109C185.197 45.3533 183.495 45.6745 181.599 45.6745C179.736 45.6745 178.034 45.3533 176.492 44.7109C174.982 44.0685 173.682 43.1691 172.589 42.0127C171.497 40.8243 170.646 39.4109 170.036 37.7727C169.426 36.1024 169.12 34.2715 169.12 32.28C169.12 30.2885 169.426 28.4737 170.036 26.8355C170.678 25.1973 171.546 23.8001 172.638 22.6437C173.762 21.4873 175.079 20.5879 176.589 19.9455C178.13 19.3031 179.801 18.9819 181.599 18.9819C183.43 18.9819 185.101 19.3031 186.61 19.9455C188.152 20.5879 189.469 21.4873 190.561 22.6437C191.653 23.8001 192.505 25.1973 193.115 26.8355C193.725 28.4737 194.03 30.2885 194.03 32.28ZM186.707 32.28C186.707 30.0637 186.257 28.3291 185.358 27.0764C184.49 25.7916 183.238 25.1491 181.599 25.1491C179.961 25.1491 178.692 25.7916 177.793 27.0764C176.894 28.3291 176.444 30.0637 176.444 32.28C176.444 34.4964 176.894 36.2631 177.793 37.58C178.692 38.8649 179.961 39.5073 181.599 39.5073C183.238 39.5073 184.49 38.8649 185.358 37.58C186.257 36.2631 186.707 34.4964 186.707 32.28ZM199.592 20.5237C200.812 20.1704 202.386 19.8492 204.313 19.5601C206.241 19.2389 208.264 19.0783 210.384 19.0783C212.536 19.0783 214.319 19.3673 215.732 19.9455C217.178 20.4916 218.318 21.2786 219.153 22.3064C219.988 23.3343 220.583 24.5549 220.936 25.9682C221.289 27.3816 221.466 28.9555 221.466 30.69V45H214.287V31.5573C214.287 29.2446 213.982 27.6064 213.371 26.6428C212.761 25.6791 211.621 25.1973 209.951 25.1973C209.437 25.1973 208.891 25.2294 208.312 25.2937C207.734 25.3258 207.22 25.374 206.771 25.4382V45H199.592V20.5237ZM226.76 32.5209C226.76 30.2725 227.097 28.3131 227.771 26.6428C228.478 24.9404 229.394 23.527 230.518 22.4028C231.642 21.2786 232.927 20.4273 234.372 19.8492C235.85 19.271 237.36 18.9819 238.901 18.9819C242.499 18.9819 245.342 20.0901 247.43 22.3064C249.517 24.4907 250.561 27.7188 250.561 31.9909C250.561 32.4085 250.545 32.8743 250.513 33.3882C250.481 33.87 250.449 34.3037 250.417 34.6891H234.131C234.292 36.1667 234.983 37.3391 236.203 38.2064C237.424 39.0737 239.062 39.5073 241.118 39.5073C242.435 39.5073 243.72 39.3949 244.972 39.17C246.257 38.913 247.301 38.6079 248.104 38.2546L249.068 44.0845C248.682 44.2773 248.168 44.47 247.526 44.6627C246.883 44.8555 246.161 45.0161 245.358 45.1445C244.587 45.3052 243.752 45.4336 242.852 45.53C241.953 45.6264 241.053 45.6745 240.154 45.6745C237.873 45.6745 235.882 45.3373 234.18 44.6627C232.509 43.9882 231.112 43.0727 229.988 41.9164C228.896 40.7279 228.077 39.3306 227.53 37.7246C227.017 36.1185 226.76 34.384 226.76 32.5209ZM243.623 29.7746C243.591 29.1643 243.479 28.57 243.286 27.9919C243.125 27.4137 242.852 26.8997 242.467 26.4501C242.113 26.0004 241.648 25.631 241.07 25.3419C240.523 25.0528 239.833 24.9082 238.998 24.9082C238.195 24.9082 237.504 25.0528 236.926 25.3419C236.348 25.5988 235.866 25.9522 235.48 26.4019C235.095 26.8516 234.79 27.3816 234.565 27.9919C234.372 28.57 234.228 29.1643 234.131 29.7746H243.623Z" fill="#191919"/>
<path fill-rule="evenodd" clip-rule="evenodd" d="M0.934326 15.9141C0.934326 11.5795 4.44821 8.06564 8.78281 8.06564H34.0101C36.1774 8.06564 37.9343 9.82259 37.9343 11.9899C37.9343 14.1572 36.1774 15.9141 34.0101 15.9141L20.3687 15.9141C13.97 15.9141 8.78281 21.1013 8.78281 27.5V28.4343C8.78281 34.317 13.5517 39.0858 19.4343 39.0858H26.3485C28.4126 39.0858 30.0858 37.4126 30.0858 35.3485C30.0858 33.2844 28.4126 31.6111 26.3485 31.6111L20.5555 31.6111C18.3882 31.6111 16.6313 29.8542 16.6313 27.6869C16.6313 25.5196 18.3882 23.7626 20.5555 23.7626H30.0858C34.4204 23.7626 37.9343 27.2765 37.9343 31.6111V39.0858C37.9343 43.4204 34.4204 46.9343 30.0858 46.9343H8.78281C4.44821 46.9343 0.934326 43.4204 0.934326 39.0858V15.9141Z" fill="#1A1A1A"/>
</svg>
