<svg width="30" height="30" viewBox="0 0 30 30" fill="none" xmlns="http://www.w3.org/2000/svg">
<path d="M11.8612 0.00375016L12.7725 0H17.2275L18.14 0.00375016L19.2825 0.0162507L19.8237 0.025001L20.3463 0.0387516L20.85 0.0562523L21.335 0.0762532L21.8025 0.102504L22.2525 0.133756L22.6838 0.171257L23.1 0.212509C25.275 0.457519 26.7663 0.982541 27.8913 2.10759C29.0163 3.23263 29.5413 4.7227 29.7863 6.89904L29.8288 7.31531L29.865 7.74782L29.8962 8.19784L29.9212 8.66411L29.9525 9.39914L29.9675 9.91166L29.9837 10.7167L29.995 11.8605L30 13.0855L29.9988 17.227L29.995 18.1395L29.9825 19.2821L29.9738 19.8233L29.96 20.3458L29.9425 20.8496L29.9225 21.3346L29.8962 21.8022L29.865 22.2522L29.8275 22.6834L29.7863 23.0997C29.5413 25.2748 29.0163 26.7661 27.8913 27.8912C26.7663 29.0162 25.2762 29.5412 23.1 29.7862L22.6838 29.8287L22.2513 29.865L21.8013 29.8962L21.335 29.9212L20.6 29.9525L20.0875 29.9675L19.2825 29.9837L18.1388 29.995L16.9137 30L12.7725 29.9988L11.86 29.995L10.7175 29.9825L10.1762 29.9737L9.65375 29.96L9.15 29.9425L8.665 29.9225L8.1975 29.8962L7.7475 29.865L7.31625 29.8275L6.9 29.7862C4.725 29.5412 3.23375 29.0162 2.10875 27.8912C0.98375 26.7661 0.45875 25.2761 0.21375 23.0997L0.17125 22.6834L0.135 22.2509L0.10375 21.8009L0.07875 21.3346L0.0475 20.5996L0.0325 20.0871L0.01625 19.2821L0.005 18.1383L0 16.9132L0.00125 12.7718L0.005 11.8592L0.0175 10.7167L0.02625 10.1754L0.04 9.6529L0.0575 9.14913L0.0775 8.66411L0.10375 8.19659L0.135 7.74657L0.1725 7.31531L0.21375 6.89904C0.45875 4.72395 0.98375 3.23263 2.10875 2.10759C3.23375 0.982541 4.72375 0.457519 6.9 0.212509L7.31625 0.170007L7.74875 0.133756L8.19875 0.102504L8.665 0.0775032L9.4 0.0462519L9.9125 0.0312513L10.7175 0.0150006L11.8612 0.00375016ZM8.4875 9.12413H5.0625C5.225 16.9245 9.125 21.6122 15.9625 21.6122H16.35V17.1495C18.8625 17.3995 20.7625 19.2371 21.525 21.6122H25.075C24.1 18.062 21.5375 16.0994 19.9375 15.3494C21.5375 14.4244 23.7875 12.1743 24.325 9.12413H21.1C20.4 11.5992 18.325 13.8493 16.35 14.0618V9.12413H13.125V17.7745C11.125 17.2745 8.6 14.8494 8.4875 9.12413Z" fill="white"/>
</svg>
